<svg width="204" height="40" viewBox="0 0 204 40" fill="none" xmlns="http://www.w3.org/2000/svg">
<path d="M23.9147 26.0787V38.6821M23.9147 26.0787V1.11133M23.9147 26.0787H2.14453V15.962L11.1445 1.11133" stroke="#212121" stroke-width="4.29"/>
<path d="M33.7344 3.19336V1.04836L31.5894 3.19336H33.7344ZM61.8144 3.19336H63.9594L61.8144 1.04836V3.19336ZM61.8144 36.7334V38.8784L63.9594 36.7334H61.8144ZM33.7344 36.7334H31.5894L33.7344 38.8784V36.7334ZM61.8144 21.1334H63.9594V18.9884H61.8144V21.1334ZM61.8144 31.9419L59.6694 31.9419V31.9419H61.8144ZM61.8144 36.7334V34.5884H56.9881V36.7334V38.8784H61.8144V36.7334ZM33.7344 7.98479H35.8794V3.19336H33.7344H31.5894V7.98479H33.7344ZM33.7344 7.98479H31.5894V31.9419H33.7344H35.8794V7.98479H33.7344ZM33.7344 31.9419H31.5894V36.7334H33.7344H35.8794V31.9419H33.7344ZM33.7344 36.7334V38.8784H38.9994V36.7334V34.5884H33.7344V36.7334ZM38.9994 36.7334V38.8784H56.9881V36.7334V34.5884H38.9994V36.7334ZM61.8144 21.1334H59.6694L59.6694 31.9419L61.8144 31.9419H63.9594L63.9594 21.1334H61.8144ZM61.8144 31.9419H59.6694V36.7334H61.8144H63.9594V31.9419H61.8144ZM33.7344 3.19336V5.33836H38.9994V3.19336V1.04836H33.7344V3.19336ZM38.9994 3.19336V5.33836H56.9881V3.19336V1.04836H38.9994V3.19336ZM56.9881 3.19336V5.33836H61.8144V3.19336V1.04836H56.9881V3.19336ZM61.8144 3.19336H59.6694V9.54479H61.8144H63.9594V3.19336H61.8144ZM61.8144 9.54479H59.6694V15.2945H61.8144H63.9594V9.54479H61.8144ZM61.8144 21.1334V18.9884H44.1511V21.1334V23.2784H61.8144V21.1334Z" fill="#212121"/>
<path d="M71.3945 2.96289V0.817891L69.2495 2.96289H71.3945ZM109.395 2.96289H111.54L109.395 0.817891V2.96289ZM109.395 36.9629V39.1079L111.54 36.9629H109.395ZM71.3945 36.9629H69.2495L71.3945 39.1079V36.9629ZM109.395 36.9629V34.8179H101.795V36.9629V39.1079H109.395V36.9629ZM71.3945 9.76289H73.5395V2.96289H71.3945H69.2495V9.76289H71.3945ZM71.3945 9.76289H69.2495V30.1629H71.3945H73.5395V9.76289H71.3945ZM71.3945 30.1629H69.2495V36.9629H71.3945H73.5395V30.1629H71.3945ZM71.3945 36.9629V39.1079H78.5195V36.9629V34.8179H71.3945V36.9629ZM78.5195 36.9629V39.1079H101.795V36.9629V34.8179H78.5195V36.9629ZM109.395 30.1629H107.25V36.9629H109.395H111.54V30.1629H109.395ZM71.3945 2.96289V5.10789H78.5195V2.96289V0.817891H71.3945V2.96289ZM78.5195 2.96289V5.10789H101.795V2.96289V0.817891H78.5195V2.96289ZM101.795 2.96289V5.10789H109.395V2.96289V0.817891H101.795V2.96289ZM109.395 2.96289H107.25V10.2486H109.395H111.54V2.96289H109.395ZM109.395 30.1629H111.54V10.2486H109.395H107.25V30.1629H109.395Z" fill="#212121"/>
<path d="M128.878 3.39062V38.0974M128.878 3.39062H114.854M128.878 3.39062H141.531" stroke="#212121" stroke-width="4.29" stroke-linejoin="round"/>
<path d="M153.208 3.39062H155.353L153.208 1.24563V3.39062ZM153.208 23.9407H155.353V3.39062H153.208H151.063V23.9407H153.208ZM153.208 3.39062V1.24563H144.531V3.39062V5.53562H153.208V3.39062ZM153.208 23.9407H151.063V38.0974H153.208H155.353V23.9407H153.208Z" fill="#212121"/>
<path d="M163.215 3.38672V1.24172L161.07 3.38672H163.215ZM201.435 3.38672H203.58L201.435 1.24172V3.38672ZM201.435 36.1467V38.2917L203.58 36.1467H201.435ZM163.215 36.1467H161.07L163.215 38.2917V36.1467ZM201.435 36.1467V34.0017H193.791V36.1467V38.2917H201.435V36.1467ZM163.215 9.93872H165.36V3.38672H163.215H161.07V9.93872H163.215ZM163.215 9.93872H161.07V29.5947H163.215H165.36V9.93872H163.215ZM163.215 29.5947H161.07V36.1467H163.215H165.36V29.5947H163.215ZM163.215 36.1467V38.2917H170.381V36.1467V34.0017H163.215V36.1467ZM170.381 36.1467V38.2917H193.791V36.1467V34.0017H170.381V36.1467ZM201.435 29.5947H199.29V36.1467H201.435H203.58V29.5947H201.435ZM163.215 3.38672V5.53172H170.381V3.38672V1.24172H163.215V3.38672ZM170.381 3.38672V5.53172H193.791V3.38672V1.24172H170.381V3.38672ZM193.791 3.38672V5.53172H201.435V3.38672V1.24172H193.791V3.38672ZM201.435 3.38672H199.29V10.4067H201.435H203.58V3.38672H201.435ZM201.435 29.5947H203.58V10.4067H201.435H199.29V29.5947H201.435Z" fill="#212121"/>
</svg>
