<svg width="419" height="78" viewBox="0 0 419 78" fill="none" xmlns="http://www.w3.org/2000/svg">
<g clip-path="url(#clip0_1104_3539)">
<path d="M5 49.2387L1.03059 48.7449L5 53.2387V49.2387ZM40.4045 49.2387V45.2387H5V49.2387V53.2387H40.4045V49.2387ZM5 49.2387L8.96941 49.7324L14.6963 3.69199L10.7268 3.19824L6.75743 2.7045L1.03059 48.7449L5 49.2387ZM40.4045 49.2387H36.4045V72.7982H40.4045H44.4045V49.2387H40.4045ZM40.4045 49.2387H44.4045V3.19824H40.4045H36.4045V49.2387H40.4045Z" fill="#212121"/>
<path d="M56.5 6.75684V2.75684L52.5 6.75684H56.5ZM122.5 6.75684H126.5L122.5 2.75684V6.75684ZM122.5 68.7568V72.7568L126.5 68.7568H122.5ZM56.5 68.7568H52.5L56.5 72.7568V68.7568ZM122.5 40.4441H126.5V36.4441H122.5V40.4441ZM122.5 68.7568V64.7568H111.156V68.7568V72.7568H122.5V68.7568ZM56.5 15.614H60.5V6.75684H56.5H52.5V15.614H56.5ZM56.5 15.614H52.5V59.8997H56.5H60.5V15.614H56.5ZM56.5 59.8997H52.5V68.7568H56.5H60.5V59.8997H56.5ZM56.5 68.7568V72.7568H68.875V68.7568V64.7568H56.5V68.7568ZM68.875 68.7568V72.7568H111.156V68.7568V64.7568H68.875V68.7568ZM122.5 40.4441H118.5V59.8997H122.5H126.5V40.4441H122.5ZM122.5 59.8997H118.5V68.7568H122.5H126.5V59.8997H122.5ZM56.5 6.75684V10.7568H68.875V6.75684V2.75684H56.5V6.75684ZM68.875 6.75684V10.7568H111.156V6.75684V2.75684H68.875V6.75684ZM111.156 6.75684V10.7568H122.5V6.75684V2.75684H111.156V6.75684ZM122.5 6.75684H118.5V15.614H122.5H126.5V6.75684H122.5ZM122.5 15.614H118.5V26.2426H122.5H126.5V15.614H122.5ZM122.5 40.4441V36.4441H89.0744V40.4441V44.4441H122.5V40.4441Z" fill="#212121"/>
<path d="M270.082 7.63281V73.6328M270.082 7.63281H239.5M270.082 7.63281H297.5" stroke="#212121" stroke-width="8" stroke-linejoin="round"/>
<path d="M325.5 7.63281H329.5L325.5 3.63281V7.63281ZM325.5 46.7118H329.5V7.63281H325.5H321.5V46.7118H325.5ZM325.5 7.63281V3.63281H303.5V7.63281V11.6328H325.5V7.63281ZM325.5 46.7118H321.5V73.6328H325.5H329.5V46.7118H325.5Z" fill="#212121"/>
<path d="M398.3 70.8408H411.5V58.2408V21.3408V7.84082H398.3H357.875H345.5V20.4408V58.2408V70.8408H357.875H398.3Z" stroke="#212121" stroke-width="8"/>
<path d="M211.35 8.1H229.5V20.28V55.95V69H211.35H155.766H138.75V56.82V20.28V8.1H155.766H211.35Z" stroke="#212121" stroke-width="8"/>
</g>
<defs>
<clipPath id="clip0_1104_3539">
<rect width="419" height="78" fill="white"/>
</clipPath>
</defs>
</svg>
