<svg width="382" height="78" viewBox="0 0 382 78" fill="none" xmlns="http://www.w3.org/2000/svg">
<g clip-path="url(#clip0_1104_3518)">
<path d="M6 6.67871V2.67871H2V6.67871H6ZM70.9837 6.67871H74.9837L70.9837 2.67871V6.67871ZM44.351 6.67871V2.67871H42.6721L41.4961 3.87701L44.351 6.67871ZM32.6326 6.67871L35.4348 3.8243L34.2679 2.67871H32.6326V6.67871ZM70.9837 45.1559H74.9837V6.67871H70.9837H66.9837V45.1559H70.9837ZM70.9837 45.1559H66.9837V71.6624H70.9837H74.9837V45.1559H70.9837ZM6 6.67871H2V71.6624H6H10V6.67871H6ZM70.9837 6.67871V2.67871H44.351V6.67871V10.6787H70.9837V6.67871ZM38.601 71.6624H42.601V12.5379H38.601H34.601V71.6624H38.601ZM44.351 6.67871L41.4961 3.87701L35.7461 9.7362L38.601 12.5379L41.4559 15.3396L47.2059 9.48041L44.351 6.67871ZM32.6326 6.67871V2.67871H6V6.67871V10.6787H32.6326V6.67871ZM32.6326 6.67871L29.8304 9.53313L35.7988 15.3923L38.601 12.5379L41.4032 9.68348L35.4348 3.8243L32.6326 6.67871Z" fill="#212121"/>
<path d="M93.3203 6.6709V2.6709L89.9611 4.49932L93.3203 6.6709ZM170.464 6.6709L173.824 4.49982L170.464 2.6709V6.6709ZM175.896 15.0761L179.895 14.9957L179.872 13.8595L179.256 12.905L175.896 15.0761ZM87.8867 15.0761L84.5275 12.9045L83.9112 13.8579L83.8876 14.9928L87.8867 15.0761ZM87.3828 39.2728L83.3837 39.1896L83.3828 39.2312V39.2728H87.3828ZM176.383 39.2728H180.383V39.2326L180.382 39.1924L176.383 39.2728ZM87.8867 15.0761L91.2459 17.2477L96.6795 8.84247L93.3203 6.6709L89.9611 4.49932L84.5275 12.9045L87.8867 15.0761ZM93.3203 6.6709V10.6709H118.163V6.6709V2.6709H93.3203V6.6709ZM118.163 6.6709V10.6709H128.832V6.6709V2.6709H118.163V6.6709ZM128.832 6.6709V10.6709H170.464V6.6709V2.6709H128.832V6.6709ZM170.464 6.6709L167.105 8.84198L172.536 17.2472L175.896 15.0761L179.256 12.905L173.824 4.49982L170.464 6.6709ZM87.8867 15.0761L83.8876 14.9928L83.3837 39.1896L87.3828 39.2728L91.3819 39.3561L91.8858 15.1594L87.8867 15.0761ZM87.3828 39.2728H83.3828V70.8135H87.3828H91.3828V39.2728H87.3828ZM87.3828 39.2728V43.2728H176.383V39.2728V35.2728H87.3828V39.2728ZM87.3828 70.8135H83.3828V71.6709H87.3828H91.3828V70.8135H87.3828ZM176.383 70.8135H172.383V71.6709H176.383H180.383V70.8135H176.383ZM175.896 15.0761L171.897 15.1566L172.384 39.3533L176.383 39.2728L180.382 39.1924L179.895 14.9957L175.896 15.0761ZM176.383 39.2728H172.383V70.8135H176.383H180.383V39.2728H176.383Z" fill="#212121"/>
<path d="M191.383 7.27051V2.92051L187.033 7.27051H191.383ZM292.883 7.27051H297.233L292.883 2.92051V7.27051ZM292.883 68.1705V72.5205L297.233 68.1705H292.883ZM191.383 68.1705H187.033L191.383 72.5205V68.1705ZM292.883 42.3895H297.233V38.0395H292.883V42.3895ZM292.883 68.1705V63.8205H275.437V68.1705V72.5205H292.883V68.1705ZM191.383 15.9705H195.733V7.27051H191.383H187.033V15.9705H191.383ZM191.383 15.9705H187.033V59.4705H191.383H195.733V15.9705H191.383ZM191.383 59.4705H187.033V68.1705H191.383H195.733V59.4705H191.383ZM191.383 68.1705V72.5205H210.414V68.1705V63.8205H191.383V68.1705ZM210.414 68.1705V72.5205H275.437V68.1705V63.8205H210.414V68.1705ZM292.883 42.3895H288.533V59.4705H292.883H297.233V42.3895H292.883ZM292.883 59.4705H288.533V68.1705H292.883H297.233V59.4705H292.883ZM191.383 7.27051V11.6205H210.414V7.27051V2.92051H191.383V7.27051ZM210.414 7.27051V11.6205H275.437V7.27051V2.92051H210.414V7.27051ZM275.437 7.27051V11.6205H292.883V7.27051V2.92051H275.437V7.27051ZM292.883 7.27051H288.533V15.9705H292.883H297.233V7.27051H292.883ZM292.883 15.9705H288.533V26.4105H292.883H297.233V15.9705H292.883ZM292.883 42.3895V38.0395H241.478V42.3895V46.7395H292.883V42.3895Z" fill="#212121"/>
<path d="M328.839 8.3366C345.796 1.11373 365.394 9.04831 372.601 26.086C379.808 43.1239 371.883 62.7833 354.926 70.0062C337.969 77.2288 318.371 69.2932 311.164 52.2554C303.957 35.2178 311.883 15.5596 328.839 8.3366Z" stroke="#212121" stroke-width="8"/>
<path opacity="0.9" d="M340.553 60.1675L333.506 42.5837M342.594 38.7127L354.535 43.8567L358.272 52.5679M342.594 38.7127L333.506 42.5837M342.594 38.7127C342.594 38.7127 344.641 37.8742 345.302 37.4793C347.246 36.3176 350.725 33.2307 347.938 26.9443C344.203 18.5209 335.419 23.0471 335.419 23.0471L329.234 25.6717L327.122 26.5683L327.963 28.6793L333.506 42.5837" stroke="#202020" stroke-width="7"/>
</g>
<defs>
<clipPath id="clip0_1104_3518">
<rect width="382" height="78" fill="white"/>
</clipPath>
</defs>
</svg>
