<svg width="168" height="38" viewBox="0 0 168 38" fill="none" xmlns="http://www.w3.org/2000/svg">
<path d="M2.14453 2.21484V0.0698438H-0.000468731V2.21484H2.14453ZM37.1013 2.21484H39.2463L37.1013 0.0698438V2.21484ZM22.7747 2.21484V0.0698438H21.8744L21.2438 0.712432L22.7747 2.21484ZM16.4711 2.21484L17.9737 0.684163L17.348 0.0698438H16.4711V2.21484ZM37.1013 22.9129H39.2463V2.21484H37.1013H34.9563V22.9129H37.1013ZM37.1013 22.9129H34.9563V37.1716H37.1013H39.2463V22.9129H37.1013ZM2.14453 2.21484H-0.000468731V37.1716H2.14453H4.28953V2.21484H2.14453ZM37.1013 2.21484V0.0698438H22.7747V2.21484V4.35984H37.1013V2.21484ZM19.6816 37.1716H21.8266V5.36668H19.6816H17.5366V37.1716H19.6816ZM22.7747 2.21484L21.2438 0.712432L18.1507 3.86427L19.6816 5.36668L21.2126 6.86909L24.3057 3.71726L22.7747 2.21484ZM16.4711 2.21484V0.0698438H2.14453V2.21484V4.35984H16.4711V2.21484ZM16.4711 2.21484L14.9684 3.74552L18.1789 6.89736L19.6816 5.36668L21.1843 3.836L17.9737 0.684163L16.4711 2.21484Z" fill="#212121"/>
<path d="M50.3242 2.14453V-0.000468731L48.5953 0.87483L50.3242 2.14453ZM97.6507 2.14453L99.3797 0.875098L97.6507 -0.000468731V2.14453ZM100.983 6.68335L103.127 6.63434L103.112 5.95869L102.712 5.41392L100.983 6.68335ZM46.9908 6.68335L45.2619 5.41365L44.8623 5.95774L44.8464 6.63262L46.9908 6.68335ZM46.6816 19.7496L44.5372 19.6988L44.5366 19.7242V19.7496H46.6816ZM101.282 19.7496H103.427V19.7251L103.426 19.7006L101.282 19.7496ZM46.9908 6.68335L48.7196 7.95305L52.053 3.41423L50.3242 2.14453L48.5953 0.87483L45.2619 5.41365L46.9908 6.68335ZM50.3242 2.14453V4.28953H65.565V2.14453V-0.000468731H50.3242V2.14453ZM65.565 2.14453V4.28953H72.1099V2.14453V-0.000468731H65.565V2.14453ZM72.1099 2.14453V4.28953H97.6507V2.14453V-0.000468731H72.1099V2.14453ZM97.6507 2.14453L95.9216 3.41396L99.254 7.95278L100.983 6.68335L102.712 5.41392L99.3797 0.875098L97.6507 2.14453ZM46.9908 6.68335L44.8464 6.63262L44.5372 19.6988L46.6816 19.7496L48.826 19.8003L49.1352 6.73408L46.9908 6.68335ZM46.6816 19.7496H44.5366V36.7816H46.6816H48.8266V19.7496H46.6816ZM46.6816 19.7496V21.8946H101.282V19.7496V17.6046H46.6816V19.7496ZM46.6816 36.7816H44.5366V37.2445H46.6816H48.8266V36.7816H46.6816ZM101.282 36.7816H99.1366V37.2445H101.282H103.427V36.7816H101.282ZM100.983 6.68335L98.8386 6.73236L99.1372 19.7986L101.282 19.7496L103.426 19.7006L103.127 6.63434L100.983 6.68335ZM101.282 19.7496H99.1366V36.7816H101.282H103.427V19.7496H101.282Z" fill="#212121"/>
<path d="M110.861 2.53516V0.585156L108.911 2.53516H110.861ZM165.461 2.53516H167.411L165.461 0.585156V2.53516ZM165.461 35.2952V37.2452L167.411 35.2952H165.461ZM110.861 35.2952H108.911L110.861 37.2452V35.2952ZM165.461 21.4267H167.411V19.4767H165.461V21.4267ZM165.461 35.2952V33.3452H156.077V35.2952V37.2452H165.461V35.2952ZM110.861 7.21516H112.811V2.53516H110.861H108.911V7.21516H110.861ZM110.861 7.21516H108.911V30.6152H110.861H112.811V7.21516H110.861ZM110.861 30.6152H108.911V35.2952H110.861H112.811V30.6152H110.861ZM110.861 35.2952V37.2452H121.099V35.2952V33.3452H110.861V35.2952ZM121.099 35.2952V37.2452H156.077V35.2952V33.3452H121.099V35.2952ZM165.461 21.4267H163.511V30.6152H165.461H167.411V21.4267H165.461ZM165.461 30.6152H163.511V35.2952H165.461H167.411V30.6152H165.461ZM110.861 2.53516V4.48516H121.099V2.53516V0.585156H110.861V2.53516ZM121.099 2.53516V4.48516H156.077V2.53516V0.585156H121.099V2.53516ZM156.077 2.53516V4.48516H165.461V2.53516V0.585156H156.077V2.53516ZM165.461 2.53516H163.511V7.21516H165.461H167.411V2.53516H165.461ZM165.461 7.21516H163.511V12.8312H165.461H167.411V7.21516H165.461ZM165.461 21.4267V19.4767H137.809V21.4267V23.3767H165.461V21.4267Z" fill="#212121"/>
</svg>
