<svg width="389" height="78" viewBox="0 0 389 78" fill="none" xmlns="http://www.w3.org/2000/svg">
<path d="M4 6.50781V2.50781H0V6.50781H4ZM68.9837 6.50781H72.9837L68.9837 2.50781V6.50781ZM42.351 6.50781V2.50781H40.6721L39.4961 3.70611L42.351 6.50781ZM30.6326 6.50781L33.4348 3.6534L32.2679 2.50781H30.6326V6.50781ZM68.9837 44.985H72.9837V6.50781H68.9837H64.9837V44.985H68.9837ZM68.9837 44.985H64.9837V71.4915H68.9837H72.9837V44.985H68.9837ZM4 6.50781H0V71.4915H4H8V6.50781H4ZM68.9837 6.50781V2.50781H42.351V6.50781V10.5078H68.9837V6.50781ZM36.601 71.4915H40.601V12.367H36.601H32.601V71.4915H36.601ZM42.351 6.50781L39.4961 3.70611L33.7461 9.5653L36.601 12.367L39.4559 15.1687L45.2059 9.30951L42.351 6.50781ZM30.6326 6.50781V2.50781H4V6.50781V10.5078H30.6326V6.50781ZM30.6326 6.50781L27.8304 9.36223L33.7988 15.2214L36.601 12.367L39.4032 9.51258L33.4348 3.6534L30.6326 6.50781Z" fill="white"/>
<path d="M91.3203 6.5V2.5L87.9611 4.32843L91.3203 6.5ZM168.464 6.5L171.824 4.32892L168.464 2.5V6.5ZM173.896 14.9052L177.895 14.8248L177.872 13.6886L177.256 12.7341L173.896 14.9052ZM85.8867 14.9052L82.5275 12.7336L81.9112 13.687L81.8876 14.8219L85.8867 14.9052ZM85.3828 39.1019L81.3837 39.0187L81.3828 39.0603V39.1019H85.3828ZM174.383 39.1019H178.383V39.0617L178.382 39.0215L174.383 39.1019ZM85.8867 14.9052L89.2459 17.0768L94.6795 8.67157L91.3203 6.5L87.9611 4.32843L82.5275 12.7336L85.8867 14.9052ZM91.3203 6.5V10.5H116.163V6.5V2.5H91.3203V6.5ZM116.163 6.5V10.5H126.832V6.5V2.5H116.163V6.5ZM126.832 6.5V10.5H168.464V6.5V2.5H126.832V6.5ZM168.464 6.5L165.105 8.67108L170.536 17.0763L173.896 14.9052L177.256 12.7341L171.824 4.32892L168.464 6.5ZM85.8867 14.9052L81.8876 14.8219L81.3837 39.0187L85.3828 39.1019L89.3819 39.1852L89.8858 14.9885L85.8867 14.9052ZM85.3828 39.1019H81.3828V70.6426H85.3828H89.3828V39.1019H85.3828ZM85.3828 39.1019V43.1019H174.383V39.1019V35.1019H85.3828V39.1019ZM85.3828 70.6426H81.3828V71.5H85.3828H89.3828V70.6426H85.3828ZM174.383 70.6426H170.383V71.5H174.383H178.383V70.6426H174.383ZM173.896 14.9052L169.897 14.9857L170.384 39.1824L174.383 39.1019L178.382 39.0215L177.895 14.8248L173.896 14.9052ZM174.383 39.1019H170.383V70.6426H174.383H178.383V39.1019H174.383Z" fill="white"/>
<path d="M189.383 7.09961V2.74961L185.033 7.09961H189.383ZM290.883 7.09961H295.233L290.883 2.74961V7.09961ZM290.883 67.9996V72.3496L295.233 67.9996H290.883ZM189.383 67.9996H185.033L189.383 72.3496V67.9996ZM290.883 42.2186H295.233V37.8686H290.883V42.2186ZM290.883 67.9996V63.6496H273.437V67.9996V72.3496H290.883V67.9996ZM189.383 15.7996H193.733V7.09961H189.383H185.033V15.7996H189.383ZM189.383 15.7996H185.033V59.2996H189.383H193.733V15.7996H189.383ZM189.383 59.2996H185.033V67.9996H189.383H193.733V59.2996H189.383ZM189.383 67.9996V72.3496H208.414V67.9996V63.6496H189.383V67.9996ZM208.414 67.9996V72.3496H273.437V67.9996V63.6496H208.414V67.9996ZM290.883 42.2186H286.533V59.2996H290.883H295.233V42.2186H290.883ZM290.883 59.2996H286.533V67.9996H290.883H295.233V59.2996H290.883ZM189.383 7.09961V11.4496H208.414V7.09961V2.74961H189.383V7.09961ZM208.414 7.09961V11.4496H273.437V7.09961V2.74961H208.414V7.09961ZM273.437 7.09961V11.4496H290.883V7.09961V2.74961H273.437V7.09961ZM290.883 7.09961H286.533V15.7996H290.883H295.233V7.09961H290.883ZM290.883 15.7996H286.533V26.2396H290.883H295.233V15.7996H290.883ZM290.883 42.2186V37.8686H239.478V42.2186V46.5686H290.883V42.2186Z" fill="white"/>
<path d="M326.839 8.1657C343.796 0.942834 363.394 8.87742 370.601 25.9151C377.808 42.953 369.883 62.6124 352.926 69.8353C335.969 77.0579 316.371 69.1223 309.164 52.0845C301.957 35.0469 309.883 15.3887 326.839 8.1657Z" stroke="white" stroke-width="8"/>
<path opacity="0.9" d="M331.507 42.4128L340.595 38.5418C340.595 38.5418 342.642 37.7033 343.303 37.3084C345.247 36.1467 348.726 33.0598 345.938 26.7734C342.204 18.35 333.42 22.8762 333.42 22.8762L327.235 25.5008L325.122 26.3974L325.964 28.5084L331.507 42.4128L338.554 59.9966M340.595 38.5418L352.536 43.6858L356.273 52.397" stroke="white" stroke-width="7"/>
</svg>
