<svg width="415" height="73" viewBox="0 0 415 73" fill="none" xmlns="http://www.w3.org/2000/svg">
<path d="M3.96973 46.5345L0.000316381 46.0408L3.96973 50.5345V46.5345ZM39.3742 46.5345V42.5345H3.96973V46.5345V50.5345H39.3742V46.5345ZM3.96973 46.5345L7.93914 47.0283L13.666 0.987885L9.69657 0.494141L5.72716 0.000396401L0.000316381 46.0408L3.96973 46.5345ZM39.3742 46.5345H35.3742V70.0941H39.3742H43.3742V46.5345H39.3742ZM39.3742 46.5345H43.3742V0.494141H39.3742H35.3742V46.5345H39.3742Z" fill="white"/>
<path d="M55.4697 4.05273V0.0527344L51.4697 4.05273H55.4697ZM121.47 4.05273H125.47L121.47 0.0527344V4.05273ZM121.47 66.0527V70.0527L125.47 66.0527H121.47ZM55.4697 66.0527H51.4697L55.4697 70.0527V66.0527ZM121.47 37.74H125.47V33.74H121.47V37.74ZM121.47 66.0527V62.0527H110.126V66.0527V70.0527H121.47V66.0527ZM55.4697 12.9099H59.4697V4.05273H55.4697H51.4697V12.9099H55.4697ZM55.4697 12.9099H51.4697V57.1956H55.4697H59.4697V12.9099H55.4697ZM55.4697 57.1956H51.4697V66.0527H55.4697H59.4697V57.1956H55.4697ZM55.4697 66.0527V70.0527H67.8447V66.0527V62.0527H55.4697V66.0527ZM67.8447 66.0527V70.0527H110.126V66.0527V62.0527H67.8447V66.0527ZM121.47 37.74H117.47V57.1956H121.47H125.47V37.74H121.47ZM121.47 57.1956H117.47V66.0527H121.47H125.47V57.1956H121.47ZM55.4697 4.05273V8.05273H67.8447V4.05273V0.0527344H55.4697V4.05273ZM67.8447 4.05273V8.05273H110.126V4.05273V0.0527344H67.8447V4.05273ZM110.126 4.05273V8.05273H121.47V4.05273V0.0527344H110.126V4.05273ZM121.47 4.05273H117.47V12.9099H121.47H125.47V4.05273H121.47ZM121.47 12.9099H117.47V23.5385H121.47H125.47V12.9099H121.47ZM121.47 37.74V33.74H88.0441V37.74V41.74H121.47V37.74Z" fill="white"/>
<path d="M210.32 65.4537H228.47V53.2737V17.6037V4.55371H210.32H154.735H137.72V16.7337V53.2737V65.4537H154.735H210.32Z" stroke="white" stroke-width="8"/>
<path d="M269.052 4.92871V70.9287M269.052 4.92871H238.47M269.052 4.92871H296.47" stroke="white" stroke-width="8" stroke-linejoin="round"/>
<path d="M324.47 4.92871H328.47L324.47 0.928711V4.92871ZM324.47 44.0077H328.47V4.92871H324.47H320.47V44.0077H324.47ZM324.47 4.92871V0.928711H302.47V4.92871V8.92871H324.47V4.92871ZM324.47 44.0077H320.47V70.9287H324.47H328.47V44.0077H324.47Z" fill="white"/>
<path d="M397.27 68.1367H410.47V55.5367V18.6367V5.13672H397.27H356.845H344.47V17.7367V55.5367V68.1367H356.845H397.27Z" stroke="white" stroke-width="8"/>
</svg>
