<svg width="74" height="44" viewBox="0 0 74 44" fill="none" xmlns="http://www.w3.org/2000/svg">
<path d="M32.2369 28.7808H35.9869L32.2369 25.0308V28.7808ZM3.61475 28.7808L4.1008e-05 27.7826L3.61475 32.5308V28.7808ZM25.065 28.7808V32.5308H32.2369V28.7808V25.0308H25.065V28.7808ZM25.065 28.7808V25.0308H3.61475V28.7808V32.5308H25.065V28.7808ZM3.61475 28.7808L7.22945 29.779L14.9017 1.99625L11.287 0.998047L7.67227 -0.000155449L4.1008e-05 27.7826L3.61475 28.7808ZM25.065 28.7808H21.315V42.9977H25.065H28.815V28.7808H25.065ZM25.065 28.7808L28.8145 28.8425L29.2713 1.0597L25.5218 0.998047L21.7723 0.936395L21.3155 28.7192L25.065 28.7808ZM32.2369 28.7808H28.4869V32.326H32.2369H35.9869V28.7808H32.2369Z" fill="black"/>
<path d="M43.6147 3.99805V0.248047L39.8647 3.99805H43.6147ZM69.6147 3.99805H73.3647L69.6147 0.248047V3.99805ZM69.6147 39.998V43.748L73.3647 39.998H69.6147ZM43.6147 39.998H39.8647L43.6147 43.748V39.998ZM69.6147 24.4334H73.3647V20.6834H69.6147V24.4334ZM56.4471 24.4334H52.6971L56.4471 28.1834V24.4334ZM69.6147 39.998V36.248H65.146V39.998V43.748H69.6147V39.998ZM43.6147 9.14091H47.3647V3.99805H43.6147H39.8647V9.14091H43.6147ZM43.6147 9.14091H39.8647V34.8552H43.6147H47.3647V9.14091H43.6147ZM43.6147 34.8552H39.8647V39.998H43.6147H47.3647V34.8552H43.6147ZM43.6147 39.998V43.748H48.4897V39.998V36.248H43.6147V39.998ZM48.4897 39.998V43.748H65.146V39.998V36.248H48.4897V39.998ZM69.6147 24.4334H65.8647V34.8552H69.6147H73.3647V24.4334H69.6147ZM69.6147 34.8552H65.8647V39.998H69.6147H73.3647V34.8552H69.6147ZM43.6147 3.99805V7.74805H48.4897V3.99805V0.248047H43.6147V3.99805ZM48.4897 3.99805V7.74805H65.146V3.99805V0.248047H48.4897V3.99805ZM65.146 3.99805V7.74805H69.6147V3.99805V0.248047H65.146V3.99805ZM69.6147 3.99805H65.8647V9.14091H69.6147H73.3647V3.99805H69.6147ZM69.6147 9.14091H65.8647V15.3123H69.6147H73.3647V9.14091H69.6147ZM69.6147 24.4334V20.6834H56.4471V24.4334V28.1834H69.6147V24.4334ZM56.4471 24.4334H60.1971V20.498H56.4471H52.6971V24.4334H56.4471Z" fill="black"/>
</svg>
