<svg width="94" height="47" viewBox="0 0 94 47" fill="none" xmlns="http://www.w3.org/2000/svg">
<path d="M4 4V0H0V4H4ZM46.8244 4H50.8244L46.8244 0V4ZM29.2734 4V0H27.5945L26.4185 1.1983L29.2734 4ZM21.551 4L24.3532 1.14559L23.1862 0H21.551V4ZM46.8244 29.3566H50.8244V4H46.8244H42.8244V29.3566H46.8244ZM46.8244 29.3566H42.8244V46.8245H46.8244H50.8244V29.3566H46.8244ZM4 4H0V46.8245H4H8V4H4ZM46.8244 4V0H29.2734V4V8H46.8244V4ZM25.4841 46.8245H29.4841V7.86123H25.4841H21.4841V46.8245H25.4841ZM29.2734 4L26.4185 1.1983L22.6292 5.05953L25.4841 7.86123L28.339 10.6629L32.1283 6.8017L29.2734 4ZM21.551 4V0H4V4V8H21.551V4ZM21.551 4L18.7488 6.85441L22.6819 10.7156L25.4841 7.86123L28.2863 5.00681L24.3532 1.14559L21.551 4Z" fill="black"/>
<path d="M63.3219 4V0L59.3918 3.25569L63.3219 4ZM85.1723 4L89.1024 3.25592L85.1723 0V4ZM86.225 9.56038L82.2948 10.3045L82.3008 10.336L82.3072 10.3675L86.225 9.56038ZM62.2688 9.56038L58.3387 8.81606L58.3337 8.8426L58.329 8.8692L62.2688 9.56038ZM80.307 4V8V4ZM68.6294 4V0V4ZM59.4607 25.5674L55.5209 24.8763L55.4607 25.2192V25.5674H59.4607ZM89.5226 25.5674H93.5226V25.1597L93.4404 24.7603L89.5226 25.5674ZM62.2688 9.56038L66.199 10.3047L67.252 4.74431L63.3219 4L59.3918 3.25569L58.3387 8.81606L62.2688 9.56038ZM63.3219 4V8H68.6294V4V0H63.3219V4ZM68.6294 4V8H80.307V4V0H68.6294V4ZM80.307 4V8H85.1723V4V0H80.307V4ZM85.1723 4L81.2421 4.74408L82.2948 10.3045L86.225 9.56038L90.1552 8.8163L89.1024 3.25592L85.1723 4ZM62.2688 9.56038L58.329 8.8692L55.5209 24.8763L59.4607 25.5674L63.4005 26.2586L66.2087 10.2515L62.2688 9.56038ZM59.4607 25.5674H55.4607V46.4328H59.4607H63.4607V25.5674H59.4607ZM59.4607 25.5674V29.5674H89.5226V25.5674V21.5674H59.4607V25.5674ZM59.4607 46.4328H55.4607V47H59.4607H63.4607V46.4328H59.4607ZM89.5226 46.4328H85.5226V47H89.5226H93.5226V46.4328H89.5226ZM86.225 9.56038L82.3072 10.3675L85.6049 26.3745L89.5226 25.5674L93.4404 24.7603L90.1427 8.75327L86.225 9.56038ZM89.5226 25.5674H85.5226V46.4328H89.5226H93.5226V25.5674H89.5226Z" fill="black"/>
</svg>
