<svg width="85" height="46" viewBox="0 0 85 46" fill="none" xmlns="http://www.w3.org/2000/svg">
<path d="M4 4V0L0 4H4ZM81 4H85L81 0V4ZM81 42V46L85 42H81ZM4 42H0L4 46V42ZM81 25.9133H85V21.9133H81V25.9133ZM42.0034 25.9133H38.0034L42.0034 29.9133V25.9133ZM81 42V38H67.7656V42V46H81V42ZM4 9.42857H8V4H4H0V9.42857H4ZM4 9.42857H0V36.5714H4H8V9.42857H4ZM4 36.5714H0V42H4H8V36.5714H4ZM4 42V46H18.4375V42V38H4V42ZM18.4375 42V46H67.7656V42V38H18.4375V42ZM81 25.9133H77V36.5714H81H85V25.9133H81ZM81 36.5714H77V42H81H85V36.5714H81ZM4 4V8H18.4375V4V0H4V4ZM18.4375 4V8H67.7656V4V0H18.4375V4ZM67.7656 4V8H81V4V0H67.7656V4ZM81 4H77V9.42857H81H85V4H81ZM81 9.42857H77V15.9429H81H85V9.42857H81ZM81 25.9133V21.9133H42.0034V25.9133V29.9133H81V25.9133ZM42.0034 25.9133H46.0034V22.1989H42.0034H38.0034V25.9133H42.0034Z" fill="black"/>
</svg>
