<svg width="72" height="44" viewBox="0 0 72 44" fill="none" xmlns="http://www.w3.org/2000/svg">
<path d="M31.7549 28.6481H35.0049L31.7549 25.3981V28.6481ZM3.13281 28.6481L6.55651e-05 27.783L3.13281 31.8981V28.6481ZM24.583 28.6481V31.8981H31.7549V28.6481V25.3981H24.583V28.6481ZM24.583 28.6481V25.3981H3.13281V28.6481V31.8981H24.583V28.6481ZM3.13281 28.6481L6.26556 29.5132L13.9378 1.73021L10.805 0.865112L7.67226 1.3113e-05L6.55651e-05 27.783L3.13281 28.6481ZM24.583 28.6481H21.333V42.8651H24.583H27.833V28.6481H24.583ZM24.583 28.6481L27.8325 28.7015L28.2893 0.918543L25.0398 0.865112L21.7902 0.811681L21.3334 28.5947L24.583 28.6481ZM31.7549 28.6481H28.5049V32.1934H31.7549H35.0049V28.6481H31.7549Z" fill="black"/>
<path d="M42.1367 3.86584V0.615845L38.8867 3.86584H42.1367ZM68.1366 3.86584H71.3866L68.1366 0.615845V3.86584ZM68.1366 39.8661V43.1161L71.3866 39.8661H68.1366ZM42.1367 39.8661H38.8867L42.1367 43.1161V39.8661ZM68.1366 24.3013H71.3866V21.0513H68.1366V24.3013ZM54.969 24.3013H51.719L54.969 27.5513V24.3013ZM68.1366 39.8661V36.6161H63.6679V39.8661V43.1161H68.1366V39.8661ZM42.1367 9.00875H45.3867V3.86584H42.1367H38.8867V9.00875H42.1367ZM42.1367 9.00875H38.8867V34.7232H42.1367H45.3867V9.00875H42.1367ZM42.1367 34.7232H38.8867V39.8661H42.1367H45.3867V34.7232H42.1367ZM42.1367 39.8661V43.1161H47.0117V39.8661V36.6161H42.1367V39.8661ZM47.0117 39.8661V43.1161H63.6679V39.8661V36.6161H47.0117V39.8661ZM68.1366 24.3013H64.8866V34.7232H68.1366H71.3866V24.3013H68.1366ZM68.1366 34.7232H64.8866V39.8661H68.1366H71.3866V34.7232H68.1366ZM42.1367 3.86584V7.11584H47.0117V3.86584V0.615845H42.1367V3.86584ZM47.0117 3.86584V7.11584H63.6679V3.86584V0.615845H47.0117V3.86584ZM63.6679 3.86584V7.11584H68.1366V3.86584V0.615845H63.6679V3.86584ZM68.1366 3.86584H64.8866V9.00875H68.1366H71.3866V3.86584H68.1366ZM68.1366 9.00875H64.8866V15.1802H68.1366H71.3866V9.00875H68.1366ZM68.1366 24.3013V21.0513H54.969V24.3013V27.5513H68.1366V24.3013ZM54.969 24.3013H58.219V20.366H54.969H51.719V24.3013H54.969Z" fill="black"/>
</svg>
