<svg width="77" height="41" viewBox="0 0 77 41" fill="none" xmlns="http://www.w3.org/2000/svg">
<path d="M3.25 3.25V0L0 3.25H3.25ZM73.0873 3.25H76.3373L73.0873 0V3.25ZM73.0873 37.7151V40.9651L76.3373 37.7151H73.0873ZM3.25 37.7151H0L3.25 40.9651V37.7151ZM73.0873 23.1249H76.3373V19.8749H73.0873V23.1249ZM37.7182 23.1249H34.4682L37.7182 26.3749V23.1249ZM73.0873 37.7151V34.4651H61.084V37.7151V40.9651H73.0873V37.7151ZM3.25 8.17359H6.5V3.25H3.25H0V8.17359H3.25ZM3.25 8.17359H0V32.7915H3.25H6.5V8.17359H3.25ZM3.25 32.7915H0V37.7151H3.25H6.5V32.7915H3.25ZM3.25 37.7151V40.9651H16.3445V37.7151V34.4651H3.25V37.7151ZM16.3445 37.7151V40.9651H61.084V37.7151V34.4651H16.3445V37.7151ZM73.0873 23.1249H69.8373V32.7915H73.0873H76.3373V23.1249H73.0873ZM73.0873 32.7915H69.8373V37.7151H73.0873H76.3373V32.7915H73.0873ZM3.25 3.25V6.5H16.3445V3.25V0H3.25V3.25ZM16.3445 3.25V6.5H61.084V3.25V0H16.3445V3.25ZM61.084 3.25V6.5H73.0873V3.25V0H61.084V3.25ZM73.0873 3.25H69.8373V8.17359H73.0873H76.3373V3.25H73.0873ZM73.0873 8.17359H69.8373V14.0819H73.0873H76.3373V8.17359H73.0873ZM73.0873 23.1249V19.8749H37.7182V23.1249V26.3749H73.0873V23.1249ZM37.7182 23.1249H40.9682V19.756H37.7182H34.4682V23.1249H37.7182Z" fill="black"/>
</svg>
