<svg width="213" height="49" viewBox="0 0 213 49" fill="none" xmlns="http://www.w3.org/2000/svg">
<path d="M3 3.0918V0.0917969H0V3.0918H3ZM47.8163 3.0918H50.8163L47.8163 0.0917969V3.0918ZM29.449 3.0918V0.0917969H28.1898L27.3078 0.990521L29.449 3.0918ZM21.3673 3.0918L23.469 0.950985L22.5938 0.0917969H21.3673V3.0918ZM47.8163 29.6278H50.8163V3.0918H47.8163H44.8163V29.6278H47.8163ZM47.8163 29.6278H44.8163V47.9081H47.8163H50.8163V29.6278H47.8163ZM3 3.0918H0V47.9081H3H6V3.0918H3ZM47.8163 3.0918V0.0917969H29.449V3.0918V6.0918H47.8163V3.0918ZM25.4835 47.9081H28.4835V7.13261H25.4835H22.4835V47.9081H25.4835ZM29.449 3.0918L27.3078 0.990521L23.3423 5.03134L25.4835 7.13261L27.6246 9.23389L31.5901 5.19307L29.449 3.0918ZM21.3673 3.0918V0.0917969H3V3.0918V6.0918H21.3673V3.0918ZM21.3673 3.0918L19.2657 5.23261L23.3818 9.27343L25.4835 7.13261L27.5851 4.9918L23.469 0.950985L21.3673 3.0918Z" fill="#212121"/>
<path d="M63.4863 3V0L61.0684 1.22419L63.4863 3ZM124.161 3L126.58 1.22457L124.161 0V3ZM128.434 8.819L131.433 8.75045L131.411 7.80548L130.852 7.04357L128.434 8.819ZM59.2127 8.819L56.7948 7.04319L56.2359 7.80416L56.2135 8.74804L59.2127 8.819ZM58.8164 25.5706L55.8172 25.4996L55.8164 25.5351V25.5706H58.8164ZM128.816 25.5706H131.816V25.5363L131.816 25.502L128.816 25.5706ZM59.2127 8.819L61.6307 10.5948L65.9043 4.77581L63.4863 3L61.0684 1.22419L56.7948 7.04319L59.2127 8.819ZM63.4863 3V6H83.0258V3V0H63.4863V3ZM83.0258 3V6H91.4167V3V0H83.0258V3ZM91.4167 3V6H124.161V3V0H91.4167V3ZM124.161 3L121.743 4.77543L126.015 10.5944L128.434 8.819L130.852 7.04357L126.58 1.22457L124.161 3ZM59.2127 8.819L56.2135 8.74804L55.8172 25.4996L58.8164 25.5706L61.8156 25.6415L62.2119 8.88995L59.2127 8.819ZM58.8164 25.5706H55.8164V47.4064H58.8164H61.8164V25.5706H58.8164ZM58.8164 25.5706V28.5706H128.816V25.5706V22.5706H58.8164V25.5706ZM58.8164 47.4064H55.8164V48H58.8164H61.8164V47.4064H58.8164ZM128.816 47.4064H125.816V48H128.816H131.816V47.4064H128.816ZM128.434 8.819L125.434 8.88755L125.817 25.6391L128.816 25.5706L131.816 25.502L131.433 8.75045L128.434 8.819ZM128.816 25.5706H125.816V47.4064H128.816H131.816V25.5706H128.816Z" fill="#212121"/>
<path d="M139.816 3.5V0.5L136.816 3.5H139.816ZM209.816 3.5H212.816L209.816 0.5V3.5ZM209.816 45.5V48.5L212.816 45.5H209.816ZM139.816 45.5H136.816L139.816 48.5V45.5ZM209.816 27.72H212.816V24.72H209.816V27.72ZM209.816 45.5V42.5H197.785V45.5V48.5H209.816V45.5ZM139.816 9.5H142.816V3.5H139.816H136.816V9.5H139.816ZM139.816 9.5H136.816V39.5H139.816H142.816V9.5H139.816ZM139.816 39.5H136.816V45.5H139.816H142.816V39.5H139.816ZM139.816 45.5V48.5H152.941V45.5V42.5H139.816V45.5ZM152.941 45.5V48.5H197.785V45.5V42.5H152.941V45.5ZM209.816 27.72H206.816V39.5H209.816H212.816V27.72H209.816ZM209.816 39.5H206.816V45.5H209.816H212.816V39.5H209.816ZM139.816 3.5V6.5H152.941V3.5V0.5H139.816V3.5ZM152.941 3.5V6.5H197.785V3.5V0.5H152.941V3.5ZM197.785 3.5V6.5H209.816V3.5V0.5H197.785V3.5ZM209.816 3.5H206.816V9.5H209.816H212.816V3.5H209.816ZM209.816 9.5H206.816V16.7H209.816H212.816V9.5H209.816ZM209.816 27.72V24.72H174.365V27.72V30.72H209.816V27.72Z" fill="#212121"/>
</svg>
