<svg width="259" height="49" viewBox="0 0 259 49" fill="none" xmlns="http://www.w3.org/2000/svg">
<path d="M2.97656 32.1221L-0.000495195 31.7518L2.97656 35.1221V32.1221ZM27.3935 32.1221V29.1221H2.97656V32.1221V35.1221H27.3935V32.1221ZM2.97656 32.1221L5.95362 32.4924L9.90317 0.740425L6.92611 0.370117L3.94905 -0.000190973L-0.000495195 31.7518L2.97656 32.1221ZM27.3935 32.1221H24.3935V48.3701H27.3935H30.3935V32.1221H27.3935ZM27.3935 32.1221L30.393 32.1772L30.9761 0.4252L27.9766 0.370117L24.9771 0.315035L24.394 32.067L27.3935 32.1221Z" fill="#212121"/>
<path d="M41.9766 3.37012V0.370117L38.9766 3.37012H41.9766ZM71.9766 3.37012H74.9766L71.9766 0.370117V3.37012ZM71.9766 44.3701V47.3701L74.9766 44.3701H71.9766ZM41.9766 44.3701H38.9766L41.9766 47.3701V44.3701ZM71.9766 25.6472H74.9766V22.6472H71.9766V25.6472ZM71.9766 44.3701V41.3701H66.8203V44.3701V47.3701H71.9766V44.3701ZM41.9766 9.22726H44.9766V3.37012H41.9766H38.9766V9.22726H41.9766ZM41.9766 9.22726H38.9766V38.513H41.9766H44.9766V9.22726H41.9766ZM41.9766 38.513H38.9766V44.3701H41.9766H44.9766V38.513H41.9766ZM41.9766 44.3701V47.3701H47.6016V44.3701V41.3701H41.9766V44.3701ZM47.6016 44.3701V47.3701H66.8203V44.3701V41.3701H47.6016V44.3701ZM71.9766 25.6472H68.9766V38.513H71.9766H74.9766V25.6472H71.9766ZM71.9766 38.513H68.9766V44.3701H71.9766H74.9766V38.513H71.9766ZM41.9766 3.37012V6.37012H47.6016V3.37012V0.370117H41.9766V3.37012ZM47.6016 3.37012V6.37012H66.8203V3.37012V0.370117H47.6016V3.37012ZM66.8203 3.37012V6.37012H71.9766V3.37012V0.370117H66.8203V3.37012ZM71.9766 3.37012H68.9766V9.22726H71.9766H74.9766V3.37012H71.9766ZM71.9766 9.22726H68.9766V16.2558H71.9766H74.9766V9.22726H71.9766ZM71.9766 25.6472V22.6472H56.7831V25.6472V28.6472H71.9766V25.6472Z" fill="#212121"/>
<path d="M139.377 45.3701H152.977V36.9701V12.3701V3.37012H139.377H97.7266H84.9766V11.7701V36.9701V45.3701H97.7266H139.377Z" stroke="#212121" stroke-width="6"/>
<path d="M177.955 3.87402V48.3699M177.955 3.87402H160.977M177.955 3.87402H193.177" stroke="#212121" stroke-width="6" stroke-linejoin="round"/>
<path d="M209.147 3.87402H212.147L209.147 0.874023V3.87402ZM209.147 30.2203H212.147V3.87402H209.147H206.147V30.2203H209.147ZM209.147 3.87402V0.874023H198.023V3.87402V6.87402H209.147V3.87402ZM209.147 30.2203H206.147V48.3699H209.147H212.147V30.2203H209.147Z" fill="#212121"/>
<path d="M249.177 45.8701H255.977V37.4701V12.8701V3.87012H249.177H228.352H221.977V12.2701V37.4701V45.8701H228.352H249.177Z" stroke="#212121" stroke-width="6"/>
</svg>
