<svg width="85" height="43" viewBox="0 0 85 43" fill="none" xmlns="http://www.w3.org/2000/svg">
<path d="M3.25 3.25V0H0V3.25H3.25ZM42.0907 3.25H45.3407L42.0907 0V3.25ZM26.1724 3.25V0H24.8083L23.8528 0.97362L26.1724 3.25ZM19.1683 3.25L21.4451 0.930789L20.497 0H19.1683V3.25ZM42.0907 26.2478H45.3407V3.25H42.0907H38.8407V26.2478H42.0907ZM42.0907 26.2478H38.8407V42.0908H42.0907H45.3407V26.2478H42.0907ZM3.25 3.25H0V42.0908H3.25H6.5V3.25H3.25ZM42.0907 3.25V0H26.1724V3.25V6.5H42.0907V3.25ZM22.7356 42.0908H25.9856V6.75204H22.7356H19.4856V42.0908H22.7356ZM26.1724 3.25L23.8528 0.97362L20.416 4.47566L22.7356 6.75204L25.0552 9.02842L28.492 5.52638L26.1724 3.25ZM19.1683 3.25V0H3.25V3.25V6.5H19.1683V3.25ZM19.1683 3.25L16.8915 5.56921L20.4588 9.07125L22.7356 6.75204L25.0124 4.43283L21.4451 0.930789L19.1683 3.25Z" fill="black"/>
<path d="M57.0528 3.25V0L53.8596 2.64524L57.0528 3.25ZM76.8706 3.25L80.0639 2.64543L76.8706 0V3.25ZM77.8254 8.29313L74.6321 8.8977L74.637 8.92334L74.6422 8.9489L77.8254 8.29313ZM56.0977 8.29313L52.9045 7.68838L52.9004 7.70994L52.8966 7.73155L56.0977 8.29313ZM72.4579 3.25V6.5V3.25ZM61.8666 3.25V0V3.25ZM53.5508 22.8112L50.3497 22.2496L50.3008 22.5282V22.8112H53.5508ZM80.8163 22.8112H84.0663V22.4799L83.9995 22.1554L80.8163 22.8112ZM56.0977 8.29313L59.291 8.89789L60.2461 3.85476L57.0528 3.25L53.8596 2.64524L52.9045 7.68838L56.0977 8.29313ZM57.0528 3.25V6.5H61.8666V3.25V0H57.0528V3.25ZM61.8666 3.25V6.5H72.4579V3.25V0H61.8666V3.25ZM72.4579 3.25V6.5H76.8706V3.25V0H72.4579V3.25ZM76.8706 3.25L73.6773 3.85457L74.6321 8.8977L77.8254 8.29313L81.0187 7.68857L80.0639 2.64543L76.8706 3.25ZM56.0977 8.29313L52.8966 7.73155L50.3497 22.2496L53.5508 22.8112L56.7519 23.3727L59.2988 8.85471L56.0977 8.29313ZM53.5508 22.8112H50.3008V41.7356H53.5508H56.8008V22.8112H53.5508ZM53.5508 22.8112V26.0612H80.8163V22.8112V19.5612H53.5508V22.8112ZM53.5508 41.7356H50.3008V42.25H53.5508H56.8008V41.7356H53.5508ZM80.8163 41.7356H77.5663V42.25H80.8163H84.0663V41.7356H80.8163ZM77.8254 8.29313L74.6422 8.9489L77.6331 23.4669L80.8163 22.8112L83.9995 22.1554L81.0085 7.63736L77.8254 8.29313ZM80.8163 22.8112H77.5663V41.7356H80.8163H84.0663V22.8112H80.8163Z" fill="black"/>
</svg>
