<svg width="16" height="16" viewBox="0 0 16 16" fill="none" xmlns="http://www.w3.org/2000/svg">
<path opacity="0.8" d="M8.51465 0.996094C10.0628 0.990622 11.1406 2.07719 11.1406 3.3291V5.39062H11.9219C12.7503 5.39062 13.4218 6.06225 13.4219 6.89062V12.8525C13.4217 13.6808 12.7502 14.3525 11.9219 14.3525H5.07617C4.24783 14.3525 3.57631 13.6808 3.57617 12.8525V6.87305C3.57625 6.05504 4.23191 5.38753 5.0498 5.37305L5.88086 5.35742L5.88281 3.35156C5.88294 2.76791 6.08417 2.15727 6.53418 1.69727C6.98787 1.23361 7.65156 0.968821 8.49023 0.996094V0.995117L8.49219 0.996094C8.49993 0.99635 8.50785 0.994811 8.51562 0.995117L8.51465 0.996094Z" stroke="black"/>
<path d="M5.65723 5.35596L11.3535 5.39278" stroke="black" stroke-linecap="round"/>
</svg>
