<svg width="16" height="16" viewBox="0 0 16 16" fill="none" xmlns="http://www.w3.org/2000/svg">
<path d="M5.46582 1.59766C5.67737 1.03932 6.48038 1.00237 6.74219 1.53906L6.79004 1.66211L7.49414 4.09961L9.94238 2.34766L10.0605 2.27734C10.6615 1.9916 11.3277 2.68405 10.9395 3.29297L9.32422 5.82422L12.2412 6.51758C12.9694 6.69047 12.9545 7.73152 12.2217 7.88379L9.07227 8.53809C9.03818 8.64655 9.0028 8.7661 8.96387 8.89941C8.90682 9.09475 8.84121 9.31379 8.76074 9.52441C8.61461 9.90687 8.37283 10.3874 7.90137 10.6279C7.90026 10.6302 7.8997 10.633 7.89844 10.6357C7.87543 10.6861 7.85147 10.7687 7.83301 10.8799C7.82832 10.9085 7.83202 10.9401 7.87207 10.9863C7.91829 11.0396 8.00289 11.0948 8.11133 11.1221C8.72796 11.2774 9.21378 11.5614 9.58984 12.0156C9.95451 12.4561 10.1877 13.0233 10.3701 13.6924C10.6306 14.648 9.86329 15.5 8.94336 15.5H3.09473C2.23509 15.4999 1.47289 14.7438 1.6582 13.8164C1.80794 13.0672 2.05266 12.4559 2.48926 11.9912C2.92924 11.523 3.51255 11.2585 4.22852 11.0996C4.30631 11.0823 4.36296 11.0484 4.39258 11.0195C4.41684 10.9958 4.41506 10.9855 4.41504 10.9824C4.41438 10.8786 4.39994 10.7965 4.37793 10.7412C4.35915 10.6943 4.34081 10.6799 4.32422 10.6709L4.29297 10.6543L4.26562 10.6338C3.30932 9.93297 2.72193 8.68318 2.72168 7.21191C2.7215 6.11321 3.0774 5.44379 3.64355 5.00977C3.90565 4.80888 4.19218 4.67444 4.44727 4.56738C4.6285 4.49132 4.77886 4.43128 4.92188 4.37109L5.42969 1.72559L5.46582 1.59766Z" stroke="black"/>
</svg>
